<?xml version="1.0" encoding="UTF-8" standalone="no"?>
<!DOCTYPE svg PUBLIC "-//W3C//DTD SVG 1.1//EN" "http://www.w3.org/Graphics/SVG/1.1/DTD/svg11.dtd">
<svg width="100%" height="100%" viewBox="0 0 886 911" version="1.1" xmlns="http://www.w3.org/2000/svg" xmlns:xlink="http://www.w3.org/1999/xlink" xml:space="preserve" xmlns:serif="http://www.serif.com/" style="fill-rule:evenodd;clip-rule:evenodd;stroke-linecap:round;stroke-linejoin:round;stroke-miterlimit:1.5;">
    <g transform="matrix(1,0,0,1,-36.0927,-80.413)">
        <g transform="matrix(1,0,0,1,847.65,1198.82)">
            <g transform="matrix(1,0,0,1,-1134.4,-2065.52)">
                <path d="M323.344,1012.65L644.638,1132.38L1201.14,1059.83L865.615,947.616L323.344,1012.65Z" style="fill:rgb(255,0,0);stroke:black;stroke-width:1px;"/>
            </g>
        </g>
        <g transform="matrix(1,0,0,1,847.65,1198.82)">
            <g transform="matrix(1,0,0,1,-1134.4,-2065.52)">
                <path d="M323.344,1012.65L325.554,1225.74L641.999,1354.45L644.772,1132.72L323.344,1012.65Z" style="fill:rgb(54,72,64);stroke:black;stroke-width:1px;"/>
            </g>
        </g>
        <g transform="matrix(1,0,0,1,847.65,1198.82)">
            <g transform="matrix(1,0,0,1,-1134.4,-2065.52)">
                <path d="M644.772,1132.72L1202.28,1059.35L1207.65,1274.55L642.833,1356.66L644.772,1132.72Z" style="fill:rgb(66,103,87);stroke:black;stroke-width:1px;"/>
            </g>
        </g>
        <g transform="matrix(1,0,0,1,847.65,1198.82)">
            <g transform="matrix(1,0,0,1,-1134.4,-2065.52)">
                <path d="M390.035,1254.02L397.725,1675.65L471.81,1855.57L463.134,1365.12L390.035,1254.02Z" style="fill:rgb(54,72,64);stroke:black;stroke-width:1px;"/>
            </g>
        </g>
        <g transform="matrix(1,0,0,1,847.65,1198.82)">
            <g transform="matrix(1,0,0,1,-1134.4,-2065.52)">
                <path d="M463.134,1365.12L1136.35,1339.39L1131.2,1813.11L473.218,1856.93L463.134,1365.12Z" style="fill:rgb(48,116,86);stroke:black;stroke-width:1px;"/>
            </g>
        </g>
        <g transform="matrix(1,0,0,1,847.65,1198.82)">
            <g transform="matrix(1,0,0,1,-1134.4,-2065.52)">
                <path d="M1136.35,1339.39L1103.41,1290.16L622.074,1358.28L1136.35,1339.39Z" style="fill:rgb(242,16,7);stroke:black;stroke-width:1px;"/>
            </g>
        </g>
        <g transform="matrix(1,0,0,1,847.65,1198.82)">
            <g transform="matrix(1,0,0,1,-1134.4,-2065.52)">
                <path d="M392.195,1254.55L648.716,1358.15L463.622,1366.66L392.195,1254.55Z" style="fill:rgb(238,35,27);stroke:black;stroke-width:1px;"/>
            </g>
        </g>
        <g transform="matrix(1,0,0,1,847.65,1198.82)">
            <g transform="matrix(1,0,0,1,-1032.12,-1309.89)">
                <circle cx="706.371" cy="464.851" r="66.662" style="fill:rgb(52,69,61);"/>
            </g>
        </g>
        <g transform="matrix(1,0,0,1,847.65,1198.82)">
            <g transform="matrix(1,0,0,1,-801.466,-1339.96)">
                <circle cx="706.371" cy="464.851" r="66.662" style="fill:rgb(52,69,61);"/>
            </g>
        </g>
        <g transform="matrix(1,0,0,1,847.65,1198.82)">
            <g transform="matrix(0.864997,0,0,0.864997,-691.623,-1272.08)">
                <circle cx="706.371" cy="464.851" r="66.662" style="fill:white;"/>
            </g>
        </g>
        <g transform="matrix(1,0,0,1,847.65,1198.82)">
            <g transform="matrix(0.864997,0,0,0.864997,-920.417,-1240.64)">
                <circle cx="706.371" cy="464.851" r="66.662" style="fill:white;"/>
            </g>
        </g>
        <g transform="matrix(1,0,0,1,847.65,1198.82)">
            <g transform="matrix(0.608376,0,0,0.608376,-716.255,-1113.46)">
                <circle cx="706.371" cy="464.851" r="66.662" style="fill:rgb(0,17,10);"/>
            </g>
        </g>
        <g transform="matrix(1,0,0,1,847.65,1198.82)">
            <g transform="matrix(0.608376,0,0,0.608376,-491.255,-1145.46)">
                <circle cx="706.371" cy="464.851" r="66.662" style="fill:rgb(0,17,10);"/>
            </g>
        </g>
        <g transform="matrix(1,0,0,1,847.65,1198.82)">
            <g transform="matrix(1,0,0,1,-1034.12,-1309.89)">
                <path d="M369.178,840.523L1032.79,804.827L1031.85,824.643L368.691,858.167L369.178,840.523Z" style="fill:rgb(52,69,61);stroke:black;stroke-width:1px;"/>
            </g>
        </g>
    </g>
</svg>
